Coordinates
version=1
nRows=17
nColumns=38
inDegrees=no

Units are S.I. units (second, meters, Newtons, ...)
If the header above contains a line with 'inDegrees', this indicates whether rotational values are in degrees (yes) or radians (no).

endheader
time	pelvis_tilt	pelvis_list	pelvis_rotation	pelvis_tx	pelvis_ty	pelvis_tz	hip_flexion_r	hip_adduction_r	hip_rotation_r	knee_angle_r	ankle_angle_r	subtalar_angle_r	mtp_angle_r	hip_flexion_l	hip_adduction_l	hip_rotation_l	knee_angle_l	ankle_angle_l	subtalar_angle_l	mtp_angle_l	lumbar_extension	lumbar_bending	lumbar_rotation	arm_flex_r	arm_add_r	arm_rot_r	elbow_flex_r	pro_sup_r	wrist_flex_r	wrist_dev_r	arm_flex_l	arm_add_l	arm_rot_l	elbow_flex_l	pro_sup_l	wrist_flex_l	wrist_dev_l
35	0.105171	1.50055	-0.366381	1.07893	-0.517107	1.02614	0.0593319	-0.233347	-0.190526	0.967668	-0.386781	0	0	0.0338329	0.0748407	-0.193541	0.0985436	-0.236903	0	0	-0.196139	-0.166688	0.282253	0.141557	-0.248219	0.54756	0.249165	1.15012	0	0	-0.0158938	-0.324714	0.56782	0.199252	0.925479	0	0
35.01	0.0402706	1.4978	-0.275708	1.08554	-0.513195	1.02619	0.0739768	-0.232614	-0.183964	0.97666	-0.391957	0	0	0.0323694	0.07612	-0.169066	0.0981248	-0.235372	0	0	-0.192728	-0.166218	0.273993	0.149358	-0.24401	0.526979	0.251612	1.18705	0	0	-0.0331949	-0.314612	0.315566	0.228045	1.18443	0	0
35.02	-0.0160517	1.49406	-0.196976	1.09222	-0.509568	1.02635	0.0887353	-0.230456	-0.174085	0.982541	-0.394905	0	0	0.0306076	0.075644	-0.158344	0.0987796	-0.236066	0	0	-0.186141	-0.163942	0.274639	0.153373	-0.245288	0.535643	0.257544	1.18122	0	0	-0.0347406	-0.315125	0.29924	0.238563	1.20566	0	0
35.03	-0.0527763	1.49081	-0.138598	1.09884	-0.505845	1.02661	0.102441	-0.229157	-0.163478	0.98575	-0.397042	0	0	0.0272852	0.0760655	-0.149103	0.0983278	-0.237205	0	0	-0.180648	-0.162566	0.275927	0.157661	-0.246721	0.542119	0.263308	1.17584	0	0	-0.0362489	-0.315654	0.286075	0.249556	1.22307	0	0
35.04	-0.0853281	1.48743	-0.0838205	1.1055	-0.501951	1.02682	0.115283	-0.227766	-0.153558	0.9858	-0.398877	0	0	0.0235956	0.0764397	-0.139759	0.0973693	-0.238615	0	0	-0.17527	-0.161158	0.276366	0.161558	-0.248589	0.546997	0.270184	1.16898	0	0	-0.03938	-0.316429	0.271232	0.263021	1.24114	0	0
35.05	-0.101894	1.48335	-0.0453776	1.11215	-0.498031	1.02712	0.126302	-0.225217	-0.143023	0.98248	-0.399502	0	0	0.0184215	0.0757521	-0.132322	0.0961167	-0.239899	0	0	-0.170966	-0.159146	0.277265	0.165428	-0.250804	0.55208	0.277167	1.16417	0	0	-0.0423989	-0.316784	0.257383	0.275916	1.25638	0	0
35.06	0.0150895	1.48976	-0.0322852	1.11066	-0.485906	1.02937	0.0962157	-0.247814	-0.244495	0.969856	-0.403467	0	0	0.00789015	0.0980965	0.139816	0.0889837	-0.23759	0	0	-0.226371	-0.158836	0.16459	0.198212	-0.243544	0.521498	0.28695	1.19825	0	0	-0.0163867	-0.339095	0.324787	0.30507	1.17936	0	0
35.07	0.0230601	1.48559	-0.0164369	1.11666	-0.481867	1.02983	0.103763	-0.245024	-0.234268	0.961221	-0.399171	0	0	-0.00166813	0.0957516	0.1535	0.0849682	-0.241235	0	0	-0.228233	-0.158305	0.157376	0.209838	-0.253779	0.594403	0.301464	1.12042	0	0	-0.0356874	-0.320713	0.128637	0.335828	1.36383	0	0
35.08	0.0212064	1.48135	0.00851627	1.12255	-0.477824	1.03024	0.11258	-0.241414	-0.222197	0.950647	-0.394199	0	0	-0.00832583	0.0930402	0.162724	0.0833634	-0.244034	0	0	-0.227916	-0.156752	0.156275	0.215041	-0.258894	0.603643	0.313326	1.10753	0	0	-0.0403448	-0.317995	0.0973775	0.353234	1.38846	0	0
35.09	0.022526	1.47751	0.0266629	1.12842	-0.474236	1.03067	0.122536	-0.236751	-0.205046	0.938779	-0.389615	0	0	-0.0153913	0.0901372	0.165032	0.0811183	-0.246569	0	0	-0.22707	-0.156575	0.159284	0.219913	-0.263741	0.610649	0.324582	1.09854	0	0	-0.0445779	-0.316409	0.0747189	0.370632	1.40572	0	0
35.1	-0.0275981	1.47346	0.106725	1.13346	-0.46899	1.03038	0.135434	-0.235432	-0.199498	0.926265	-0.382584	0	0	-0.0163548	0.0894316	0.196093	0.0793551	-0.247355	0	0	-0.22383	-0.153617	0.151418	0.225337	-0.27186	0.626044	0.338789	1.0785	0	0	-0.0494591	-0.309898	0.0307963	0.38948	1.44303	0	0
35.11	-0.0490138	1.46912	0.155004	1.1387	-0.464315	1.03033	0.146044	-0.232231	-0.190143	0.91148	-0.375905	0	0	-0.0198803	0.0872203	0.214133	0.0778363	-0.249812	0	0	-0.222298	-0.151436	0.147498	0.23	-0.279017	0.636525	0.352714	1.06284	0	0	-0.0530161	-0.30547	0.000941711	0.407123	1.46793	0	0
35.12	-0.0805472	1.46479	0.211655	1.14398	-0.459889	1.03026	0.158665	-0.22846	-0.178206	0.895492	-0.367572	0	0	-0.0226759	0.08494	0.227976	0.0751404	-0.253153	0	0	-0.21776	-0.148799	0.150532	0.226549	-0.280455	0.592752	0.363478	1.11231	0	0	-0.0423723	-0.322061	0.111783	0.407066	1.36345	0	0
35.13	-0.08277	1.46125	0.237802	1.14899	-0.455579	1.03038	0.168756	-0.224276	-0.164355	0.878343	-0.357161	0	0	-0.0275696	0.0826643	0.238804	0.0740976	-0.256499	0	0	-0.218915	-0.148331	0.149271	0.231899	-0.288473	0.606393	0.37839	1.09497	0	0	-0.0446204	-0.317377	0.0786374	0.422955	1.39099	0	0
35.14	-0.0824799	1.45792	0.261566	1.15374	-0.451291	1.03049	0.178987	-0.21973	-0.149995	0.860646	-0.345731	0	0	-0.0318761	0.0803784	0.250858	0.0740415	-0.260246	0	0	-0.221316	-0.148352	0.147382	0.238655	-0.297675	0.6261	0.393806	1.06981	0	0	-0.0474207	-0.310075	0.0319733	0.440504	1.43182	0	0
35.15	-0.0562369	1.45512	0.259616	1.15818	-0.447027	1.03073	0.186297	-0.214473	-0.135923	0.842148	-0.332895	0	0	-0.0388468	0.0776022	0.262537	0.0742327	-0.264238	0	0	-0.228928	-0.149564	0.141269	0.25593	-0.314906	0.708669	0.4138	0.961287	0	0	-0.0590954	-0.282449	-0.121494	0.473705	1.56767	0	0
35.16	-0.0489898	1.45192	0.277254	1.16257	-0.442788	1.03088	0.19592	-0.208929	-0.122498	0.822799	-0.321848	0	0	-0.0430495	0.074808	0.275452	0.0750845	-0.267468	0	0	-0.233128	-0.14931	0.140393	0.263164	-0.324665	0.726048	0.428359	0.93925	0	0	-0.0559808	-0.279713	-0.129665	0.485944	1.5708	0	0
